# xmcd
#
# Track frame offsets:
# 182
# 17307
# 36722
# 52045
# 67215
# 85252
# 103432
# 117370
#
# Disc length: 1760 seconds
#
# Revision: 1
# Processed by: cddbd v1.5.2PL0 Copyright (c) Steve Scherf et al.
# Submitted via: CedeCatalogueitor 2.6.0.6 http://personales.ya.com/cdcatalogueitor
#
DISCID=7406de08
DTITLE=Oro Solido - El Rey Del Merengue
DYEAR=1900
DGENRE=
TTITLE0=Esta Cache
TTITLE1=La Cuca
TTITLE2=Pa Que Bebas
TTITLE3=La Juma
TTITLE4=Quiero Ron
TTITLE5=Bailando Y Gozando
TTITLE6=El Policia
TTITLE7=Baila Que Goza
EXTD=
EXTT0=
EXTT1=
EXTT2=
EXTT3=
EXTT4=
EXTT5=
EXTT6=
EXTT7=
PLAYORDER=
